<svg height="512" viewBox="0 0 64 64" width="512" xmlns="http://www.w3.org/2000/svg"><path d="m2 35.8182v-5.8182h60v5.8182c0 15.5644-13.4315 28.1818-30 28.1818s-30-12.6174-30-28.1818z" fill="#ffbe27"/><g fill="#f0ad00"><path d="m24 30h-2v32.39q.9843.3269 2 .5887z"/><path d="m30 30h-2v33.7432q.99.124 2 .1875z"/><path d="m18 30h-2v29.6528q.9759.5794 2 1.09z"/><path d="m12 30h-2v24.9707q.9542.9667 2 1.8477z"/><path d="m36 30h-2v33.9307q1.01-.0626 2-.1875z"/><path d="m4 45.936a27.33 27.33 0 0 0 2 3.9347v-19.8707h-2z"/><path d="m60 30h-2v19.8707a27.33 27.33 0 0 0 2-3.9347z"/><path d="m54 30h-2v26.8182q1.0457-.8794 2-1.8479z"/><path d="m48 30h-2v30.7428q1.0247-.5091 2-1.09z"/><path d="m42 30h-2v32.9786q1.0144-.2631 2-.5886z"/></g><circle cx="32" cy="30" fill="#ffcf41" r="30"/><circle cx="32" cy="30" fill="#fcbe27" r="28"/><g fill="#f0ad00"><path d="m32 4a27.9952 27.9952 0 0 1 27.9747 27c.0118-.3325.0253-.6646.0253-1a28 28 0 0 0 -56 0c0 .3354.0135.6675.0253 1a27.9952 27.9952 0 0 1 27.9747-27z"/><path d="m35 46h8.75a7.7483 7.7483 0 0 0 3.0629-14.8663 7.7413 7.7413 0 0 0 -5.5629-13.1337h-6.25a1.5 1.5 0 0 0 -1.5 1.5v25a1.5 1.5 0 0 0 1.5 1.5zm13.5-7.75a4.7555 4.7555 0 0 1 -4.75 4.75h-7.25v-9.5h7.25a4.7555 4.7555 0 0 1 4.75 4.75zm-12-17.25h4.75a4.75 4.75 0 0 1 0 9.5h-4.75z"/><path d="m14.918 45.748a1.5 1.5 0 0 0 2.08-.416 31.1787 31.1787 0 0 0 5.252-17.3457v-6.9863h4.5v23.5a1.5 1.5 0 0 0 3 0v-25a1.5 1.5 0 0 0 -1.5-1.5h-7.5a1.5 1.5 0 0 0 -1.5 1.5v8.4863a28.1845 28.1845 0 0 1 -4.748 15.6817 1.4992 1.4992 0 0 0 .416 2.08z"/></g><g fill="#ffdf6e"><path d="m35 44h8.75a7.7483 7.7483 0 0 0 3.0629-14.8663 7.7413 7.7413 0 0 0 -5.5629-13.1337h-6.25a1.5 1.5 0 0 0 -1.5 1.5v25a1.5 1.5 0 0 0 1.5 1.5zm13.5-7.75a4.7555 4.7555 0 0 1 -4.75 4.75h-7.25v-9.5h7.25a4.7555 4.7555 0 0 1 4.75 4.75zm-12-17.25h4.75a4.75 4.75 0 0 1 0 9.5h-4.75z"/><path d="m14.918 43.748a1.5 1.5 0 0 0 2.08-.416 31.1787 31.1787 0 0 0 5.252-17.3457v-6.9863h4.5v23.5a1.5 1.5 0 0 0 3 0v-25a1.5 1.5 0 0 0 -1.5-1.5h-7.5a1.5 1.5 0 0 0 -1.5 1.5v8.4863a28.1845 28.1845 0 0 1 -4.748 15.6817 1.4992 1.4992 0 0 0 .416 2.08z"/></g></svg>