<svg height="512" viewBox="0 0 64 64" width="512" xmlns="http://www.w3.org/2000/svg"><path d="m2 35.8182v-5.8182h60v5.8182c0 15.5644-13.4315 28.1818-30 28.1818s-30-12.6174-30-28.1818z" fill="#ffbe27"/><g fill="#f0ad00"><path d="m24 30h-2v32.39q.9843.3269 2 .5887z"/><path d="m30 30h-2v33.7432q.99.124 2 .1875z"/><path d="m18 30h-2v29.6528q.9759.5794 2 1.09z"/><path d="m12 30h-2v24.9707q.9542.9667 2 1.8477z"/><path d="m36 30h-2v33.9307q1.01-.0626 2-.1875z"/><path d="m4 45.936a27.33 27.33 0 0 0 2 3.9347v-19.8707h-2z"/><path d="m60 30h-2v19.8707a27.33 27.33 0 0 0 2-3.9347z"/><path d="m54 30h-2v26.8182q1.0457-.8794 2-1.8479z"/><path d="m48 30h-2v30.7428q1.0247-.5091 2-1.09z"/><path d="m42 30h-2v32.9786q1.0144-.2631 2-.5886z"/></g><circle cx="32" cy="30" fill="#ffcf41" r="30"/><circle cx="32" cy="30" fill="#fcbe27" r="28"/><path d="m32 4a27.9952 27.9952 0 0 1 27.9747 27c.0118-.3325.0253-.6646.0253-1a28 28 0 0 0 -56 0c0 .3354.0135.6675.0253 1a27.9952 27.9952 0 0 1 27.9747-27z" fill="#f0ad00"/><path d="m26 40a2 2 0 0 0 -4 0 10.0071 10.0071 0 0 0 6.5 9.3555v2.6445a1 1 0 0 0 2 0v-2.125a9.0625 9.0625 0 0 0 3 0v2.125a1 1 0 0 0 2 0v-2.6445a9.9827 9.9827 0 0 0 0-18.711v-11.508a5.9908 5.9908 0 0 1 2.5 4.8635 2 2 0 0 0 4 0 10.0071 10.0071 0 0 0 -6.5-9.3555v-2.6445a1 1 0 0 0 -2 0v2.125a9.0625 9.0625 0 0 0 -3 0v-2.125a1 1 0 0 0 -2 0v2.6445a9.9827 9.9827 0 0 0 0 18.711v11.508a5.9908 5.9908 0 0 1 -2.5-4.8635zm12 0a5.9908 5.9908 0 0 1 -2.5 4.8635v-9.727a5.9908 5.9908 0 0 1 2.5 4.8635zm-6-22a5.9733 5.9733 0 0 1 1.5.1974v11.9276a9.9862 9.9862 0 0 0 -1.5-.125 5.9733 5.9733 0 0 1 -1.5-.1974v-11.6052a5.9733 5.9733 0 0 1 1.5-.1974zm-6 6a5.9908 5.9908 0 0 1 2.5-4.8635v9.727a5.9908 5.9908 0 0 1 -2.5-4.8635zm4.5 9.875a9.9862 9.9862 0 0 0 1.5.125 5.9733 5.9733 0 0 1 1.5.1974v11.6052a5.7978 5.7978 0 0 1 -3 0z" fill="#f0ad00"/><path d="m26 38a2 2 0 0 0 -4 0 10.0071 10.0071 0 0 0 6.5 9.3555v2.6445a1 1 0 0 0 2 0v-2.125a9.0625 9.0625 0 0 0 3 0v2.125a1 1 0 0 0 2 0v-2.6445a9.9827 9.9827 0 0 0 0-18.711v-11.508a5.9908 5.9908 0 0 1 2.5 4.8635 2 2 0 0 0 4 0 10.0071 10.0071 0 0 0 -6.5-9.3555v-2.6445a1 1 0 0 0 -2 0v2.125a9.0625 9.0625 0 0 0 -3 0v-2.125a1 1 0 0 0 -2 0v2.6445a9.9827 9.9827 0 0 0 0 18.711v11.508a5.9908 5.9908 0 0 1 -2.5-4.8635zm12 0a5.9908 5.9908 0 0 1 -2.5 4.8635v-9.727a5.9908 5.9908 0 0 1 2.5 4.8635zm-6-22a5.9733 5.9733 0 0 1 1.5.1974v11.9276a9.9862 9.9862 0 0 0 -1.5-.125 5.9733 5.9733 0 0 1 -1.5-.1974v-11.6052a5.9733 5.9733 0 0 1 1.5-.1974zm-6 6a5.9908 5.9908 0 0 1 2.5-4.8635v9.727a5.9908 5.9908 0 0 1 -2.5-4.8635zm4.5 9.875a9.9862 9.9862 0 0 0 1.5.125 5.9733 5.9733 0 0 1 1.5.1974v11.6052a5.7978 5.7978 0 0 1 -3 0z" fill="#ffdf6e"/></svg>