<svg height="512" viewBox="0 0 64 64" width="512" xmlns="http://www.w3.org/2000/svg"><path d="m2 35.8182v-5.8182h60v5.8182c0 15.5644-13.4315 28.1818-30 28.1818s-30-12.6174-30-28.1818z" fill="#ffbe27"/><g fill="#f0ad00"><path d="m24 30h-2v32.39q.9843.3269 2 .5887z"/><path d="m30 30h-2v33.7432q.99.124 2 .1875z"/><path d="m18 30h-2v29.6528q.9759.5794 2 1.09z"/><path d="m12 30h-2v24.9707q.9542.9667 2 1.8477z"/><path d="m36 30h-2v33.9307q1.01-.0626 2-.1875z"/><path d="m4 45.936a27.33 27.33 0 0 0 2 3.9347v-19.8707h-2z"/><path d="m60 30h-2v19.8707a27.33 27.33 0 0 0 2-3.9347z"/><path d="m54 30h-2v26.8182q1.0457-.8794 2-1.8479z"/><path d="m48 30h-2v30.7428q1.0247-.5091 2-1.09z"/><path d="m42 30h-2v32.9786q1.0144-.2631 2-.5886z"/></g><circle cx="32" cy="30" fill="#ffcf41" r="30"/><circle cx="32" cy="30" fill="#fcbe27" r="28"/><path d="m32 4a27.9952 27.9952 0 0 1 27.9747 27c.0118-.3325.0253-.6646.0253-1a28 28 0 0 0 -56 0c0 .3354.0135.6675.0253 1a27.9952 27.9952 0 0 1 27.9747-27z" fill="#f0ad00"/><path d="m33 15c-.0676 0-.1328.0093-.2.01l.1763-.7933a1 1 0 0 0 -1.9522-.4336l-.3086 1.3888a16.9724 16.9724 0 0 0 -6.912 31.1042l-.7794 3.507a1 1 0 0 0 .7593 1.1929.9993.9993 0 0 0 1.1929-.7593l.65-2.9232a16.8273 16.8273 0 0 0 4.1427 1.39l-.2445 1.1a1 1 0 0 0 .7593 1.1929.9993.9993 0 0 0 1.1929-.7593l.2843-1.28c.411.03.8212.0628 1.24.0628a16.8119 16.8119 0 0 0 9.3535-2.832l.7559-.5039a2 2 0 1 0 -2.2188-3.3282l-.7558.5039a12.8247 12.8247 0 0 1 -7.1358 2.1603c-.1217 0-.24-.0149-.3606-.0182l5.5306-24.8894a12.897 12.897 0 0 1 1.9648 1.0676l.7558.5039a2 2 0 0 0 2.2188-3.3282l-.7559-.5039a16.8942 16.8942 0 0 0 -3.3007-1.71l.4233-1.9048a1 1 0 1 0 -1.9522-.4336l-.3868 1.7408a16.857 16.857 0 0 0 -4.1371-.5242zm-13 17a13.011 13.011 0 0 1 9.7708-12.5776l-5.0251 22.613a12.9788 12.9788 0 0 1 -4.7457-10.0354zm10.637 12.7742a12.89 12.89 0 0 1 -4.1139-1.519l5.3777-24.1995c.3632-.0306.7282-.0557 1.0992-.0557a12.8586 12.8586 0 0 1 3.2692.43z" fill="#f0ad00"/><path d="m33 13c-.0676 0-.1328.0093-.2.01l.1763-.7933a1 1 0 0 0 -1.9522-.4336l-.3086 1.3888a16.9724 16.9724 0 0 0 -6.912 31.1042l-.7794 3.507a1 1 0 0 0 .7593 1.1929.9993.9993 0 0 0 1.1929-.7593l.65-2.9232a16.8273 16.8273 0 0 0 4.1427 1.39l-.2445 1.1a1 1 0 0 0 .7593 1.1929.9993.9993 0 0 0 1.1929-.7593l.2843-1.28c.411.03.8212.0628 1.24.0628a16.8119 16.8119 0 0 0 9.3535-2.832l.7559-.5039a2 2 0 1 0 -2.2188-3.3282l-.7558.5039a12.8247 12.8247 0 0 1 -7.1358 2.1603c-.1217 0-.24-.0149-.3606-.0182l5.5306-24.8894a12.897 12.897 0 0 1 1.9648 1.0676l.7558.5039a2 2 0 0 0 2.2188-3.3282l-.7559-.5039a16.8942 16.8942 0 0 0 -3.3007-1.71l.4233-1.9048a1 1 0 1 0 -1.9522-.4336l-.3868 1.7408a16.857 16.857 0 0 0 -4.1371-.5242zm-13 17a13.011 13.011 0 0 1 9.7708-12.5776l-5.0251 22.613a12.9788 12.9788 0 0 1 -4.7457-10.0354zm10.637 12.7742a12.89 12.89 0 0 1 -4.1139-1.519l5.3777-24.1995c.3632-.0306.7282-.0557 1.0992-.0557a12.8586 12.8586 0 0 1 3.2692.43z" fill="#ffdf6e"/></svg>