<svg height="512" viewBox="0 0 64 64" width="512" xmlns="http://www.w3.org/2000/svg"><path d="m2 35.8182v-5.8182h60v5.8182c0 15.5644-13.4315 28.1818-30 28.1818s-30-12.6174-30-28.1818z" fill="#ffbe27"/><g fill="#f0ad00"><path d="m24 30h-2v32.39q.9843.3269 2 .5887z"/><path d="m30 30h-2v33.7432q.99.124 2 .1875z"/><path d="m18 30h-2v29.6528q.9759.5794 2 1.09z"/><path d="m12 30h-2v24.9707q.9542.9667 2 1.8477z"/><path d="m36 30h-2v33.9307q1.01-.0626 2-.1875z"/><path d="m4 45.936a27.33 27.33 0 0 0 2 3.9347v-19.8707h-2z"/><path d="m60 30h-2v19.8707a27.33 27.33 0 0 0 2-3.9347z"/><path d="m54 30h-2v26.8182q1.0457-.8794 2-1.8479z"/><path d="m48 30h-2v30.7428q1.0247-.5091 2-1.09z"/><path d="m42 30h-2v32.9786q1.0144-.2631 2-.5886z"/></g><circle cx="32" cy="30" fill="#ffcf41" r="30"/><circle cx="32" cy="30" fill="#fcbe27" r="28"/><g fill="#f0ad00"><path d="m32 4a27.9952 27.9952 0 0 1 27.9747 27c.0118-.3325.0253-.6646.0253-1a28 28 0 0 0 -56 0c0 .3354.0135.6675.0253 1a27.9952 27.9952 0 0 1 27.9747-27z"/><path d="m53 25.5a1.5 1.5 0 0 0 -1.5 1.5v4.5h-5v-4.5a1.5 1.5 0 0 0 -3 0v12a1.5 1.5 0 0 0 3 0v-4.5h5v4.5a1.5 1.5 0 0 0 3 0v-12a1.5 1.5 0 0 0 -1.5-1.5z"/><path d="m33.75 40.5a7.4391 7.4391 0 0 0 4.502-1.5 1.5 1.5 0 0 0 -1.8028-2.3984 4.4585 4.4585 0 0 1 -2.6992.8984 4.5078 4.5078 0 0 1 -4.2432-3h10.2432a1.5 1.5 0 0 0 1.5-1.5 7.5 7.5 0 1 0 -7.5 7.5zm0-12a4.5078 4.5078 0 0 1 4.2432 3h-8.4864a4.5078 4.5078 0 0 1 4.2432-3z"/><path d="m12.75 40.5v-2h9v2a1.5 1.5 0 0 0 3 0v-3.5a1.5 1.5 0 0 0 -1.5-1.5v-13.5a1.5 1.5 0 0 0 -1.5-1.5h-6.375a1.5 1.5 0 0 0 -1.5 1.5v5.0918a16.2984 16.2984 0 0 1 -2.3373 8.4082h-.2877a1.5 1.5 0 0 0 -1.5 1.5v3.5a1.5 1.5 0 0 0 3 0zm4.125-13.4082v-3.5918h3.375v12h-5.3a19.29 19.29 0 0 0 1.925-8.4082z"/></g><g fill="#ffdf6e"><path d="m53 23.5a1.5 1.5 0 0 0 -1.5 1.5v4.5h-5v-4.5a1.5 1.5 0 0 0 -3 0v12a1.5 1.5 0 0 0 3 0v-4.5h5v4.5a1.5 1.5 0 0 0 3 0v-12a1.5 1.5 0 0 0 -1.5-1.5z"/><path d="m33.75 38.5a7.4391 7.4391 0 0 0 4.502-1.5 1.5 1.5 0 0 0 -1.8028-2.3984 4.4585 4.4585 0 0 1 -2.6992.8984 4.5078 4.5078 0 0 1 -4.2432-3h10.2432a1.5 1.5 0 0 0 1.5-1.5 7.5 7.5 0 1 0 -7.5 7.5zm0-12a4.5078 4.5078 0 0 1 4.2432 3h-8.4864a4.5078 4.5078 0 0 1 4.2432-3z"/><path d="m12.75 38.5v-2h9v2a1.5 1.5 0 0 0 3 0v-3.5a1.5 1.5 0 0 0 -1.5-1.5v-13.5a1.5 1.5 0 0 0 -1.5-1.5h-6.375a1.5 1.5 0 0 0 -1.5 1.5v5.0918a16.2984 16.2984 0 0 1 -2.3373 8.4082h-.2877a1.5 1.5 0 0 0 -1.5 1.5v3.5a1.5 1.5 0 0 0 3 0zm4.125-13.4082v-3.5918h3.375v12h-5.3a19.29 19.29 0 0 0 1.925-8.4082z"/></g></svg>