<svg height="512" viewBox="0 0 64 64" width="512" xmlns="http://www.w3.org/2000/svg"><path d="m2 35.8182v-5.8182h60v5.8182c0 15.5644-13.4315 28.1818-30 28.1818s-30-12.6174-30-28.1818z" fill="#ffbe27"/><g fill="#f0ad00"><path d="m24 30h-2v32.39q.9843.3269 2 .5887z"/><path d="m30 30h-2v33.7432q.99.124 2 .1875z"/><path d="m18 30h-2v29.6528q.9759.5794 2 1.09z"/><path d="m12 30h-2v24.9707q.9542.9667 2 1.8477z"/><path d="m36 30h-2v33.9307q1.01-.0626 2-.1875z"/><path d="m4 45.936a27.33 27.33 0 0 0 2 3.9347v-19.8707h-2z"/><path d="m60 30h-2v19.8707a27.33 27.33 0 0 0 2-3.9347z"/><path d="m54 30h-2v26.8182q1.0457-.8794 2-1.8479z"/><path d="m48 30h-2v30.7428q1.0247-.5091 2-1.09z"/><path d="m42 30h-2v32.9786q1.0144-.2631 2-.5886z"/></g><circle cx="32" cy="30" fill="#ffcf41" r="30"/><circle cx="32" cy="30" fill="#fcbe27" r="28"/><path d="m32 4a27.9952 27.9952 0 0 1 27.9747 27c.0118-.3325.0253-.6646.0253-1a28 28 0 0 0 -56 0c0 .3354.0135.6675.0253 1a27.9952 27.9952 0 0 1 27.9747-27z" fill="#f0ad00"/><path d="m44 30a1 1 0 0 0 0-2h-4.1371a10.1586 10.1586 0 0 0 -7.0353-17.5h-1.4194a12.08 12.08 0 0 0 -10.0723 5.3906 2 2 0 1 0 3.3282 2.2188 8.088 8.088 0 0 1 6.7441-3.6094h1.4194a6.1721 6.1721 0 0 1 3.9517 10.9136l-3.1036 2.5864h-13.6757a1 1 0 0 0 0 2h11.2758l-4.8 4h-6.4758a1 1 0 0 0 0 2h4.1371a10.1586 10.1586 0 0 0 7.0353 17.5h1.4194a12.08 12.08 0 0 0 10.0723-5.3906 2 2 0 0 0 -3.3282-2.2188 8.088 8.088 0 0 1 -6.7441 3.6094h-1.4194a6.1721 6.1721 0 0 1 -3.9517-10.9136l3.1036-2.5864h13.6757a1 1 0 0 0 0-2h-11.2758l4.8-4z" fill="#f0ad00"/><path d="m44 28a1 1 0 0 0 0-2h-4.1371a10.1586 10.1586 0 0 0 -7.0353-17.5h-1.4194a12.08 12.08 0 0 0 -10.0723 5.3906 2 2 0 1 0 3.3282 2.2188 8.088 8.088 0 0 1 6.7441-3.6094h1.4194a6.1721 6.1721 0 0 1 3.9517 10.9136l-3.1036 2.5864h-13.6757a1 1 0 0 0 0 2h11.2758l-4.8 4h-6.4758a1 1 0 0 0 0 2h4.1371a10.1586 10.1586 0 0 0 7.0353 17.5h1.4194a12.08 12.08 0 0 0 10.0723-5.3906 2 2 0 0 0 -3.3282-2.2188 8.088 8.088 0 0 1 -6.7441 3.6094h-1.4194a6.1721 6.1721 0 0 1 -3.9517-10.9136l3.1036-2.5864h13.6757a1 1 0 0 0 0-2h-11.2758l4.8-4z" fill="#ffdf6e"/></svg>