<svg height="512" viewBox="0 0 64 64" width="512" xmlns="http://www.w3.org/2000/svg"><path d="m2 35.8182v-5.8182h60v5.8182c0 15.5644-13.4315 28.1818-30 28.1818s-30-12.6174-30-28.1818z" fill="#ffbe27"/><g fill="#f0ad00"><path d="m24 30h-2v32.39q.9843.3269 2 .5887z"/><path d="m30 30h-2v33.7432q.99.124 2 .1875z"/><path d="m18 30h-2v29.6528q.9759.5794 2 1.09z"/><path d="m12 30h-2v24.9707q.9542.9667 2 1.8477z"/><path d="m36 30h-2v33.9307q1.01-.0626 2-.1875z"/><path d="m4 45.936a27.33 27.33 0 0 0 2 3.9347v-19.8707h-2z"/><path d="m60 30h-2v19.8707a27.33 27.33 0 0 0 2-3.9347z"/><path d="m54 30h-2v26.8182q1.0457-.8794 2-1.8479z"/><path d="m48 30h-2v30.7428q1.0247-.5091 2-1.09z"/><path d="m42 30h-2v32.9786q1.0144-.2631 2-.5886z"/></g><circle cx="32" cy="30" fill="#ffcf41" r="30"/><circle cx="32" cy="30" fill="#fcbe27" r="28"/><g fill="#f0ad00"><path d="m32 4a27.9952 27.9952 0 0 1 27.9747 27c.0118-.3325.0253-.6646.0253-1a28 28 0 0 0 -56 0c0 .3354.0135.6675.0253 1a27.9952 27.9952 0 0 1 27.9747-27z"/><path d="m13.5 43.5h9a1.5 1.5 0 0 0 0-3h-7.5v-19.5a1.5 1.5 0 0 0 -3 0v21a1.5 1.5 0 0 0 1.5 1.5z"/><path d="m43.5 43.5a1.5 1.5 0 0 0 1.5-1.5v-3.239l5.1074 4.3777a1.5 1.5 0 1 0 1.9526-2.2774l-6.2553-5.3613 6.2553-5.3613a1.5 1.5 0 0 0 -1.9522-2.2774l-5.1078 4.3777v-11.239a1.5 1.5 0 0 0 -3 0v21a1.5 1.5 0 0 0 1.5 1.5z"/><path d="m32 43.5a7.9321 7.9321 0 0 0 4.8013-1.6006 1.5 1.5 0 1 0 -1.8013-2.3984 5.0011 5.0011 0 0 1 -7.77-2.501h11.27a1.5 1.5 0 0 0 1.5-1.5 8 8 0 1 0 -8 8zm0-13a5.0082 5.0082 0 0 1 4.77 3.5h-9.54a5.0082 5.0082 0 0 1 4.77-3.5z"/></g><g fill="#ffdf6e"><path d="m13.5 41.5h9a1.5 1.5 0 0 0 0-3h-7.5v-19.5a1.5 1.5 0 0 0 -3 0v21a1.5 1.5 0 0 0 1.5 1.5z"/><path d="m43.5 41.5a1.5 1.5 0 0 0 1.5-1.5v-3.239l5.1074 4.3777a1.5 1.5 0 1 0 1.9526-2.2774l-6.2553-5.3613 6.2553-5.3613a1.5 1.5 0 0 0 -1.9522-2.2774l-5.1078 4.3777v-11.239a1.5 1.5 0 0 0 -3 0v21a1.5 1.5 0 0 0 1.5 1.5z"/><path d="m32 41.5a7.9321 7.9321 0 0 0 4.8013-1.6006 1.5 1.5 0 1 0 -1.8013-2.3984 5.0011 5.0011 0 0 1 -7.77-2.501h11.27a1.5 1.5 0 0 0 1.5-1.5 8 8 0 1 0 -8 8zm0-13a5.0082 5.0082 0 0 1 4.77 3.5h-9.54a5.0082 5.0082 0 0 1 4.77-3.5z"/></g></svg>