<svg height="512" viewBox="0 0 64 64" width="512" xmlns="http://www.w3.org/2000/svg"><path d="m2 35.8182v-5.8182h60v5.8182c0 15.5644-13.4315 28.1818-30 28.1818s-30-12.6174-30-28.1818z" fill="#ffbe27"/><g fill="#f0ad00"><path d="m24 30h-2v32.39q.9843.3269 2 .5887z"/><path d="m30 30h-2v33.7432q.99.124 2 .1875z"/><path d="m18 30h-2v29.6528q.9759.5794 2 1.09z"/><path d="m12 30h-2v24.9707q.9542.9667 2 1.8477z"/><path d="m36 30h-2v33.9307q1.01-.0626 2-.1875z"/><path d="m4 45.936a27.33 27.33 0 0 0 2 3.9347v-19.8707h-2z"/><path d="m60 30h-2v19.8707a27.33 27.33 0 0 0 2-3.9347z"/><path d="m54 30h-2v26.8182q1.0457-.8794 2-1.8479z"/><path d="m48 30h-2v30.7428q1.0247-.5091 2-1.09z"/><path d="m42 30h-2v32.9786q1.0144-.2631 2-.5886z"/></g><circle cx="32" cy="30" fill="#ffcf41" r="30"/><circle cx="32" cy="30" fill="#fcbe27" r="28"/><g fill="#f0ad00"><path d="m32 4a27.9952 27.9952 0 0 1 27.9747 27c.0118-.3325.0253-.6646.0253-1a28 28 0 0 0 -56 0c0 .3354.0135.6675.0253 1a27.9952 27.9952 0 0 1 27.9747-27z"/><path d="m29 26a8.0092 8.0092 0 0 0 -8-8h-6a2 2 0 0 0 -2 2v24a2 2 0 0 0 4 0v-10l8.4 11.2a2 2 0 1 0 3.2-2.4l-6.6465-8.8621a8.008 8.008 0 0 0 7.0465-7.9379zm-8 4h-4v-8h4a4 4 0 0 1 0 8z"/><path d="m49.9971 46a1.9992 1.9992 0 0 1 -1.9844-1.7793l-1.3379-12.0371-2.7227 12.25a2 2 0 0 1 -3.9042 0l-2.7227-12.25-1.3379 12.0371a2 2 0 0 1 -3.9746-.4414l2.667-24a2 2 0 0 1 3.9394-.2129l3.3809 15.2136 3.3809-15.2139a2 2 0 0 1 3.9394.2129l2.667 24a1.9987 1.9987 0 0 1 -1.7666 2.208 1.9169 1.9169 0 0 1 -.2236.013z"/></g><g fill="#ffdf6e"><path d="m29 24a8.0092 8.0092 0 0 0 -8-8h-6a2 2 0 0 0 -2 2v24a2 2 0 0 0 4 0v-10l8.4 11.2a2 2 0 1 0 3.2-2.4l-6.6465-8.8621a8.008 8.008 0 0 0 7.0465-7.9379zm-8 4h-4v-8h4a4 4 0 0 1 0 8z"/><path d="m49.9971 44a1.9992 1.9992 0 0 1 -1.9844-1.7793l-1.3379-12.0371-2.7227 12.25a2 2 0 0 1 -3.9042 0l-2.7227-12.25-1.3379 12.0371a2 2 0 0 1 -3.9746-.4414l2.667-24a2 2 0 0 1 3.9394-.2129l3.3809 15.2136 3.3809-15.2139a2 2 0 0 1 3.9394.2129l2.667 24a1.9987 1.9987 0 0 1 -1.7666 2.208 1.9169 1.9169 0 0 1 -.2236.013z"/></g></svg>