<svg height="512" viewBox="0 0 64 64" width="512" xmlns="http://www.w3.org/2000/svg"><path d="m2 35.8182v-5.8182h60v5.8182c0 15.5644-13.4315 28.1818-30 28.1818s-30-12.6174-30-28.1818z" fill="#ffbe27"/><g fill="#f0ad00"><path d="m24 30h-2v32.39q.9843.3269 2 .5887z"/><path d="m30 30h-2v33.7432q.99.124 2 .1875z"/><path d="m18 30h-2v29.6528q.9759.5794 2 1.09z"/><path d="m12 30h-2v24.9707q.9542.9667 2 1.8477z"/><path d="m36 30h-2v33.9307q1.01-.0626 2-.1875z"/><path d="m4 45.936a27.33 27.33 0 0 0 2 3.9347v-19.8707h-2z"/><path d="m60 30h-2v19.8707a27.33 27.33 0 0 0 2-3.9347z"/><path d="m54 30h-2v26.8182q1.0457-.8794 2-1.8479z"/><path d="m48 30h-2v30.7428q1.0247-.5091 2-1.09z"/><path d="m42 30h-2v32.9786q1.0144-.2631 2-.5886z"/></g><circle cx="32" cy="30" fill="#ffcf41" r="30"/><circle cx="32" cy="30" fill="#fcbe27" r="28"/><g fill="#f0ad00"><path d="m32 4a27.9952 27.9952 0 0 1 27.9747 27c.0118-.3325.0253-.6646.0253-1a28 28 0 0 0 -56 0c0 .3354.0135.6675.0253 1a27.9952 27.9952 0 0 1 27.9747-27z"/><circle cx="48" cy="45" r="2"/><path d="m19 44v-10l8.4 11.2a2 2 0 0 0 3.2-2.4l-6.6465-8.8621a7.9972 7.9972 0 0 0 -.9535-15.9379h-6a2 2 0 0 0 -2 2v24a2 2 0 0 0 4 0zm8-18a4.0039 4.0039 0 0 1 -4 4h-4v-8h4a4.0039 4.0039 0 0 1 4 4z"/><path d="m43.5 14a7.0085 7.0085 0 0 0 -7 7v7h-2a1 1 0 0 0 0 2h2v15a2 2 0 0 0 4 0v-15h3a1 1 0 0 0 0-2h-3v-7a3 3 0 0 1 6 0 2 2 0 0 0 4 0 7.0085 7.0085 0 0 0 -7-7z"/></g><g fill="#ffdf6e"><circle cx="48" cy="43" r="2"/><path d="m19 42v-10l8.4 11.2a2 2 0 0 0 3.2-2.4l-6.6465-8.8621a7.9972 7.9972 0 0 0 -.9535-15.9379h-6a2 2 0 0 0 -2 2v24a2 2 0 0 0 4 0zm8-18a4.0039 4.0039 0 0 1 -4 4h-4v-8h4a4.0039 4.0039 0 0 1 4 4z"/><path d="m43.5 12a7.0085 7.0085 0 0 0 -7 7v7h-2a1 1 0 0 0 0 2h2v15a2 2 0 0 0 4 0v-15h3a1 1 0 0 0 0-2h-3v-7a3 3 0 0 1 6 0 2 2 0 0 0 4 0 7.0085 7.0085 0 0 0 -7-7z"/></g></svg>