<svg height="512" viewBox="0 0 64 64" width="512" xmlns="http://www.w3.org/2000/svg"><path d="m2 35.8182v-5.8182h60v5.8182c0 15.5644-13.4315 28.1818-30 28.1818s-30-12.6174-30-28.1818z" fill="#ffbe27"/><g fill="#f0ad00"><path d="m24 30h-2v32.39q.9843.3269 2 .5887z"/><path d="m30 30h-2v33.7432q.99.124 2 .1875z"/><path d="m18 30h-2v29.6528q.9759.5794 2 1.09z"/><path d="m12 30h-2v24.9707q.9542.9667 2 1.8477z"/><path d="m36 30h-2v33.9307q1.01-.0626 2-.1875z"/><path d="m4 45.936a27.33 27.33 0 0 0 2 3.9347v-19.8707h-2z"/><path d="m60 30h-2v19.8707a27.33 27.33 0 0 0 2-3.9347z"/><path d="m54 30h-2v26.8182q1.0457-.8794 2-1.8479z"/><path d="m48 30h-2v30.7428q1.0247-.5091 2-1.09z"/><path d="m42 30h-2v32.9786q1.0144-.2631 2-.5886z"/></g><circle cx="32" cy="30" fill="#ffcf41" r="30"/><circle cx="32" cy="30" fill="#fcbe27" r="28"/><path d="m32 4a27.9952 27.9952 0 0 1 27.9747 27c.0118-.3325.0253-.6646.0253-1a28 28 0 0 0 -56 0c0 .3354.0135.6675.0253 1a27.9952 27.9952 0 0 1 27.9747-27z" fill="#f0ad00"/><path d="m24.0085 32h-4.5085a1 1 0 0 0 0 2h4.5082c0 2-.0008 3.8721-.0014 5.2979a8.007 8.007 0 0 1 -1.0922 4.0292l-2.1412 3.6641a2 2 0 0 0 1.7266 3.0088h19a2 2 0 0 0 0-4h-15.5146l.3828-.6553a12.0048 12.0048 0 0 0 1.6386-6.0447c.0006-1.4266.0011-3.2989.0014-5.3h4.4918a1 1 0 0 0 0-2h-4.4915c0-1.35 0-2.709 0-4h4.4915a1 1 0 0 0 0-2h-4.4926c-.0011-2.3421-.0034-4.2253-.0074-4.9609a7.1265 7.1265 0 0 1 6.7974-7.0362 7.0009 7.0009 0 0 1 7.2026 6.9971 2 2 0 0 0 4 0 11 11 0 0 0 -11.3149-10.9951 11.0611 11.0611 0 0 0 -10.6851 11.0556c.004.7333.0062 2.6077.0074 4.9395h-4.5074a1 1 0 0 0 0 2h4.5081c.0003 1.2907.0004 2.65.0004 4z" fill="#f0ad00"/><path d="m24.0085 30h-4.5085a1 1 0 0 0 0 2h4.5082c0 2-.0008 3.8721-.0014 5.2979a8.007 8.007 0 0 1 -1.0922 4.0292l-2.1412 3.6641a2 2 0 0 0 1.7266 3.0088h19a2 2 0 0 0 0-4h-15.5146l.3828-.6553a12.0048 12.0048 0 0 0 1.6386-6.0447c.0006-1.4266.0011-3.2989.0014-5.3h4.4918a1 1 0 0 0 0-2h-4.4915c0-1.35 0-2.709 0-4h4.4915a1 1 0 0 0 0-2h-4.4926c-.0011-2.3421-.0034-4.2253-.0074-4.9609a7.1265 7.1265 0 0 1 6.7974-7.0362 7.0009 7.0009 0 0 1 7.2026 6.9971 2 2 0 0 0 4 0 11 11 0 0 0 -11.3149-10.9951 11.0611 11.0611 0 0 0 -10.6851 11.0556c.004.7333.0062 2.6077.0074 4.9395h-4.5074a1 1 0 0 0 0 2h4.5081c.0003 1.2907.0004 2.65.0004 4z" fill="#ffdf6e"/></svg>