<svg height="512" viewBox="0 0 64 64" width="512" xmlns="http://www.w3.org/2000/svg"><path d="m2 35.8182v-5.8182h60v5.8182c0 15.5644-13.4315 28.1818-30 28.1818s-30-12.6174-30-28.1818z" fill="#ffbe27"/><g fill="#f0ad00"><path d="m24 30h-2v32.39q.9843.3269 2 .5887z"/><path d="m30 30h-2v33.7432q.99.124 2 .1875z"/><path d="m18 30h-2v29.6528q.9759.5794 2 1.09z"/><path d="m12 30h-2v24.9707q.9542.9667 2 1.8477z"/><path d="m36 30h-2v33.9307q1.01-.0626 2-.1875z"/><path d="m4 45.936a27.33 27.33 0 0 0 2 3.9347v-19.8707h-2z"/><path d="m60 30h-2v19.8707a27.33 27.33 0 0 0 2-3.9347z"/><path d="m54 30h-2v26.8182q1.0457-.8794 2-1.8479z"/><path d="m48 30h-2v30.7428q1.0247-.5091 2-1.09z"/><path d="m42 30h-2v32.9786q1.0144-.2631 2-.5886z"/></g><circle cx="32" cy="30" fill="#ffcf41" r="30"/><circle cx="32" cy="30" fill="#fcbe27" r="28"/><path d="m32 4a27.9952 27.9952 0 0 1 27.9747 27c.0118-.3325.0253-.6646.0253-1a28 28 0 0 0 -56 0c0 .3354.0135.6675.0253 1a27.9952 27.9952 0 0 1 27.9747-27z" fill="#f0ad00"/><path d="m30.6426 16.2061a1.3407 1.3407 0 0 1 1.3169-.0586l7.146 3.5732a2 2 0 1 0 1.789-3.5781l-7.146-3.5733a5.3544 5.3544 0 0 0 -4.789 9.5782l3.0405 1.5205v4.832h-4a2 2 0 0 0 0 4h4v11.5a4 4 0 0 1 -8 0 5.2094 5.2094 0 0 1 1.5352-3.707l.8789-.8789a2 2 0 0 0 -2.8282-2.8282l-.8794.8789a9.1857 9.1857 0 0 0 -2.7065 6.5352 8 8 0 0 0 16 0v-11.5h6a2 2 0 0 0 0-4h-6v-6.0684a2 2 0 0 0 -1.1055-1.789l-4.146-2.0733a1.3541 1.3541 0 0 1 -.1059-2.3632z" fill="#f0ad00"/><path d="m30.6426 14.2061a1.3407 1.3407 0 0 1 1.3169-.0586l7.146 3.5732a2 2 0 1 0 1.789-3.5781l-7.146-3.5733a5.3544 5.3544 0 0 0 -4.789 9.5782l3.0405 1.5205v4.832h-4a2 2 0 0 0 0 4h4v11.5a4 4 0 0 1 -8 0 5.2094 5.2094 0 0 1 1.5352-3.707l.8789-.8789a2 2 0 0 0 -2.8282-2.8282l-.8794.8789a9.1857 9.1857 0 0 0 -2.7065 6.5352 8 8 0 0 0 16 0v-11.5h6a2 2 0 0 0 0-4h-6v-6.0684a2 2 0 0 0 -1.1055-1.789l-4.146-2.0733a1.3541 1.3541 0 0 1 -.1059-2.3632z" fill="#ffdf6e"/></svg>