<svg height="512" viewBox="0 0 64 64" width="512" xmlns="http://www.w3.org/2000/svg"><path d="m2 35.8182v-5.8182h60v5.8182c0 15.5644-13.4315 28.1818-30 28.1818s-30-12.6174-30-28.1818z" fill="#ffbe27"/><g fill="#f0ad00"><path d="m24 30h-2v32.39q.9843.3269 2 .5887z"/><path d="m30 30h-2v33.7432q.99.124 2 .1875z"/><path d="m18 30h-2v29.6528q.9759.5794 2 1.09z"/><path d="m12 30h-2v24.9707q.9542.9667 2 1.8477z"/><path d="m36 30h-2v33.9307q1.01-.0626 2-.1875z"/><path d="m4 45.936a27.33 27.33 0 0 0 2 3.9347v-19.8707h-2z"/><path d="m60 30h-2v19.8707a27.33 27.33 0 0 0 2-3.9347z"/><path d="m54 30h-2v26.8182q1.0457-.8794 2-1.8479z"/><path d="m48 30h-2v30.7428q1.0247-.5091 2-1.09z"/><path d="m42 30h-2v32.9786q1.0144-.2631 2-.5886z"/></g><circle cx="32" cy="30" fill="#ffcf41" r="30"/><circle cx="32" cy="30" fill="#fcbe27" r="28"/><g fill="#f0ad00"><path d="m32 4a27.9952 27.9952 0 0 1 27.9747 27c.0118-.3325.0253-.6646.0253-1a28 28 0 0 0 -56 0c0 .3354.0135.6675.0253 1a27.9952 27.9952 0 0 1 27.9747-27z"/><circle cx="33" cy="42" r="1.5"/><circle cx="39" cy="42" r="1.5"/><path d="m31.5 12.5a2 2 0 0 0 -2 2v17a5.0059 5.0059 0 0 0 5 5h3a5.0059 5.0059 0 0 0 5-5v-3a2 2 0 0 0 -4 0v3a1.0009 1.0009 0 0 1 -1 1h-3a1.0009 1.0009 0 0 1 -1-1v-17a2 2 0 0 0 -2-2z"/><path d="m26.5 37.5v-23a2 2 0 0 0 -4 0v23a4 4 0 0 1 -8 0v-1.5a2 2 0 0 0 -4 0v1.5a8 8 0 0 0 16 0z"/><path d="m42.5 51.5h-1a2 2 0 0 1 -2-2 2 2 0 0 1 2-2h1a4 4 0 0 0 4-4v-3.9922a6.55 6.55 0 0 0 -1.2551-3.86 1.9885 1.9885 0 0 1 .0973-2.4633 2.0126 2.0126 0 0 1 3.1651.1483 10.5424 10.5424 0 0 1 1.9927 6.175v3.9922a8 8 0 0 1 -8 8z"/></g><g fill="#ffdf6e"><circle cx="33" cy="40" r="1.5"/><circle cx="39" cy="40" r="1.5"/><path d="m31.5 10.5a2 2 0 0 0 -2 2v17a5.0059 5.0059 0 0 0 5 5h3a5.0059 5.0059 0 0 0 5-5v-3a2 2 0 0 0 -4 0v3a1.0009 1.0009 0 0 1 -1 1h-3a1.0009 1.0009 0 0 1 -1-1v-17a2 2 0 0 0 -2-2z"/><path d="m26.5 35.5v-23a2 2 0 0 0 -4 0v23a4 4 0 0 1 -8 0v-1.5a2 2 0 0 0 -4 0v1.5a8 8 0 0 0 16 0z"/><path d="m42.5 49.5h-1a2 2 0 0 1 -2-2 2 2 0 0 1 2-2h1a4 4 0 0 0 4-4v-3.9922a6.55 6.55 0 0 0 -1.2551-3.86 1.9885 1.9885 0 0 1 .0973-2.4633 2.0126 2.0126 0 0 1 3.1651.1483 10.5424 10.5424 0 0 1 1.9927 6.175v3.9922a8 8 0 0 1 -8 8z"/></g></svg>