<svg height="512" viewBox="0 0 64 64" width="512" xmlns="http://www.w3.org/2000/svg"><path d="m2 35.8182v-5.8182h60v5.8182c0 15.5644-13.4315 28.1818-30 28.1818s-30-12.6174-30-28.1818z" fill="#ffbe27"/><g fill="#f0ad00"><path d="m24 30h-2v32.39q.9843.3269 2 .5887z"/><path d="m30 30h-2v33.7432q.99.124 2 .1875z"/><path d="m18 30h-2v29.6528q.9759.5794 2 1.09z"/><path d="m12 30h-2v24.9707q.9542.9667 2 1.8477z"/><path d="m36 30h-2v33.9307q1.01-.0626 2-.1875z"/><path d="m4 45.936a27.33 27.33 0 0 0 2 3.9347v-19.8707h-2z"/><path d="m60 30h-2v19.8707a27.33 27.33 0 0 0 2-3.9347z"/><path d="m54 30h-2v26.8182q1.0457-.8794 2-1.8479z"/><path d="m48 30h-2v30.7428q1.0247-.5091 2-1.09z"/><path d="m42 30h-2v32.9786q1.0144-.2631 2-.5886z"/></g><circle cx="32" cy="30" fill="#ffcf41" r="30"/><circle cx="32" cy="30" fill="#fcbe27" r="28"/><g fill="#f0ad00"><path d="m32 4a27.9952 27.9952 0 0 1 27.9747 27c.0118-.3325.0253-.6646.0253-1a28 28 0 0 0 -56 0c0 .3354.0135.6675.0253 1a27.9952 27.9952 0 0 1 27.9747-27z"/><path d="m28.5 22.5a1.5 1.5 0 0 0 -1.5 1.5v16a1.5 1.5 0 0 0 3 0v-6.5h7v6.5a1.5 1.5 0 0 0 3 0v-16a1.5 1.5 0 0 0 -3 0v6.5h-7v-6.5a1.5 1.5 0 0 0 -1.5-1.5z"/><path d="m18 41.5a9.4027 9.4027 0 0 0 5.23-1.5835l.4028-.269a1.5 1.5 0 1 0 -1.666-2.4952l-.4014.2681a6.4077 6.4077 0 0 1 -3.5654 1.0796 6.5 6.5 0 0 1 0-13 6.4068 6.4068 0 0 1 3.564 1.0786l.4028.2691a1.5 1.5 0 0 0 1.666-2.4952l-.4043-.27a9.4013 9.4013 0 0 0 -5.2285-1.5825 9.5 9.5 0 0 0 0 19z"/><path d="m43 40a1.5 1.5 0 0 0 3 0v-6.5h5.1665a1.5 1.5 0 0 0 0-3h-5.1665v-5h6.5a1.5 1.5 0 0 0 0-3h-8a1.5 1.5 0 0 0 -1.5 1.5z"/></g><g fill="#ffdf6e"><path d="m28.5 20.5a1.5 1.5 0 0 0 -1.5 1.5v16a1.5 1.5 0 0 0 3 0v-6.5h7v6.5a1.5 1.5 0 0 0 3 0v-16a1.5 1.5 0 0 0 -3 0v6.5h-7v-6.5a1.5 1.5 0 0 0 -1.5-1.5z"/><path d="m18 39.5a9.4027 9.4027 0 0 0 5.23-1.5835l.4028-.269a1.5 1.5 0 1 0 -1.666-2.4952l-.4014.2681a6.4077 6.4077 0 0 1 -3.5654 1.0796 6.5 6.5 0 0 1 0-13 6.4068 6.4068 0 0 1 3.564 1.0786l.4028.2691a1.5 1.5 0 0 0 1.666-2.4952l-.4043-.27a9.4013 9.4013 0 0 0 -5.2285-1.5825 9.5 9.5 0 0 0 0 19z"/><path d="m43 38a1.5 1.5 0 0 0 3 0v-6.5h5.1665a1.5 1.5 0 0 0 0-3h-5.1665v-5h6.5a1.5 1.5 0 0 0 0-3h-8a1.5 1.5 0 0 0 -1.5 1.5z"/></g></svg>