<svg xmlns="http://www.w3.org/2000/svg"  viewBox="0 0 48 48" width="100px" height="100px"><path fill="#3f51b5" d="M44,24c0,11.044-8.956,20-20,20S4,35.044,4,24S12.956,4,24,4S44,12.956,44,24z"/><path fill="#e8eaf6" d="M11 19h26v2H11V19zM11 23h26v2H11V23z"/><path fill="#e8eaf6" d="M14.043,14H11l6.301,21h3.043L14.043,14z"/><path fill="#e8eaf6" d="M22.484,14l-4.797,21h3.031l4.797-21H22.484z"/><path fill="#e8eaf6" d="M25.516,14h-3.031l4.766,21h3.031L25.516,14z"/><path fill="#e8eaf6" d="M33.957,14l-6.301,21h3.043L37,14H33.957z"/></svg>