<svg xmlns="http://www.w3.org/2000/svg"  viewBox="0 0 48 48" width="100px" height="100px"><path fill="#7cb342" d="M24 4A20 20 0 1 0 24 44A20 20 0 1 0 24 4Z"/><path fill="#fff" d="M14.009 18.021H37.009V20.021H14.009zM14.009 22.021H37.009V24.021H14.009z"/><path fill="#fff" d="M17 13H21V36H17z"/><path fill="#fff" d="M25.271,29.542H19v-3.5h6.271c1.825,0,3.479-0.889,4.317-2.318 c0.507-0.867,0.737-1.836,0.667-2.805c-0.053-0.715-0.265-1.402-0.633-2.042c-0.828-1.44-2.486-2.336-4.326-2.336H19v-3.5h6.296 c3.089,0,5.909,1.568,7.36,4.091c0.633,1.1,0.999,2.288,1.089,3.532c0.123,1.677-0.271,3.346-1.137,4.827 C31.146,27.99,28.334,29.542,25.271,29.542z"/></svg>