<svg xmlns="http://www.w3.org/2000/svg"  viewBox="0 0 48 48" width="100px" height="100px"><path fill="#3f51b5" d="M44,24c0,11.044-8.956,20-20,20S4,35.044,4,24S12.956,4,24,4S44,12.956,44,24z"/><path fill="#fdd835" d="M19.48 26.73L18 28.23V32h-3V14h3v9.875l.656-.719L22.293 19h4.066l-4.582 5.605L26.758 32h-3.891L19.48 26.73zM34.953 22.496c-.461-.063-.867-.094-1.219-.094-1.281 0-2.336.434-2.734 1.301V32h-3V19h3l.117 1.832c.684-1.164 1.625-1.746 2.828-1.746.375 0 .727.051 1.055.152L34.953 22.496z"/></svg>